<mxfile host="65bd71144e">
    <diagram id="7F0wuW1QLzKDv8Bb2tWS" name="Page-1">
        <mxGraphModel dx="2208" dy="1757" grid="1" gridSize="10" guides="1" tooltips="1" connect="1" arrows="1" fold="1" page="1" pageScale="1" pageWidth="850" pageHeight="1100" math="0" shadow="0">
            <root>
                <mxCell id="0"/>
                <mxCell id="1" parent="0"/>
                <mxCell id="55" value="&lt;p style=&quot;margin:0px;margin-top:4px;text-align:center;&quot;&gt;&lt;font style=&quot;font-size: 22px;&quot;&gt;&lt;b&gt;SERVER&lt;/b&gt;&lt;/font&gt;&lt;/p&gt;" style="verticalAlign=top;align=left;overflow=fill;fontSize=12;fontFamily=Helvetica;html=1;strokeWidth=5;rounded=1;" vertex="1" parent="1">
                    <mxGeometry x="-410" y="40" width="690" height="520" as="geometry"/>
                </mxCell>
                <mxCell id="2" value="&lt;font style=&quot;font-size: 16px;&quot;&gt;&lt;b&gt;GUI&lt;br&gt;(Main Thread)&lt;/b&gt;&lt;/font&gt;" style="whiteSpace=wrap;html=1;strokeWidth=2;" parent="1" vertex="1">
                    <mxGeometry y="90" width="200" height="60" as="geometry"/>
                </mxCell>
                <mxCell id="33" style="edgeStyle=none;html=1;entryX=0.5;entryY=0;entryDx=0;entryDy=0;exitX=0.5;exitY=1;exitDx=0;exitDy=0;endArrow=none;endFill=0;strokeWidth=3;" parent="1" source="3" target="6" edge="1">
                    <mxGeometry relative="1" as="geometry">
                        <mxPoint x="-240" y="180" as="sourcePoint"/>
                    </mxGeometry>
                </mxCell>
                <mxCell id="34" style="edgeStyle=none;html=1;entryX=0.5;entryY=0;entryDx=0;entryDy=0;exitX=0.5;exitY=1;exitDx=0;exitDy=0;endSize=6;endArrow=none;endFill=0;strokeWidth=3;" parent="1" source="3" target="58" edge="1">
                    <mxGeometry relative="1" as="geometry">
                        <mxPoint x="-240" y="290" as="targetPoint"/>
                    </mxGeometry>
                </mxCell>
                <mxCell id="35" style="edgeStyle=none;html=1;entryX=0.5;entryY=0;entryDx=0;entryDy=0;exitX=0.5;exitY=1;exitDx=0;exitDy=0;endArrow=none;endFill=0;strokeWidth=3;" parent="1" source="3" target="60" edge="1">
                    <mxGeometry relative="1" as="geometry">
                        <mxPoint x="-247" y="170" as="sourcePoint"/>
                        <mxPoint x="-160" y="290" as="targetPoint"/>
                        <Array as="points"/>
                    </mxGeometry>
                </mxCell>
                <mxCell id="3" value="&lt;font style=&quot;font-size: 18px;&quot;&gt;&lt;b&gt;Server RMI&lt;br&gt;(Thread)&lt;br&gt;&lt;/b&gt;&lt;/font&gt;" style="whiteSpace=wrap;html=1;strokeWidth=2;" parent="1" vertex="1">
                    <mxGeometry x="-320" y="90" width="200" height="60" as="geometry"/>
                </mxCell>
                <mxCell id="8" value="&lt;font style=&quot;font-size: 16px;&quot;&gt;&lt;b&gt;DataBase e Business Logic&lt;/b&gt;&lt;/font&gt;" style="shape=trapezoid;perimeter=trapezoidPerimeter;whiteSpace=wrap;html=1;fixedSize=1;shadow=0;rounded=0;fillStyle=hatch;gradientColor=none;fillColor=#000000;" parent="1" vertex="1">
                    <mxGeometry x="-360" y="480" width="350" height="60" as="geometry"/>
                </mxCell>
                <mxCell id="47" value="&lt;font color=&quot;#6c8ebf&quot; style=&quot;font-size: 23px;&quot;&gt;&lt;b&gt;Registro RMI&lt;/b&gt;&lt;/font&gt;" style="rounded=1;whiteSpace=wrap;html=1;strokeColor=#6c8ebf;fillColor=none;strokeWidth=8;" parent="1" vertex="1">
                    <mxGeometry x="120" y="270" width="130" height="80" as="geometry"/>
                </mxCell>
                <mxCell id="62" value="" style="endArrow=none;html=1;strokeWidth=2;rounded=0;fontSize=16;startSize=14;endSize=14;sourcePerimeterSpacing=8;targetPerimeterSpacing=8;curved=1;exitX=0.094;exitY=0;exitDx=0;exitDy=0;exitPerimeter=0;entryX=0.5;entryY=1;entryDx=0;entryDy=0;" edge="1" parent="1" source="8" target="6">
                    <mxGeometry width="50" height="50" relative="1" as="geometry">
                        <mxPoint x="-160" y="350" as="sourcePoint"/>
                        <mxPoint x="-110" y="300" as="targetPoint"/>
                    </mxGeometry>
                </mxCell>
                <mxCell id="63" value="" style="endArrow=none;html=1;strokeWidth=2;rounded=0;fontSize=16;startSize=14;endSize=14;sourcePerimeterSpacing=8;targetPerimeterSpacing=8;curved=1;entryX=0.5;entryY=1;entryDx=0;entryDy=0;" edge="1" parent="1" target="58">
                    <mxGeometry width="50" height="50" relative="1" as="geometry">
                        <mxPoint x="-227" y="480" as="sourcePoint"/>
                        <mxPoint x="-60" y="380" as="targetPoint"/>
                    </mxGeometry>
                </mxCell>
                <mxCell id="64" value="" style="endArrow=none;html=1;strokeWidth=2;rounded=0;fontSize=16;startSize=14;endSize=14;sourcePerimeterSpacing=8;targetPerimeterSpacing=8;curved=1;entryX=0.5;entryY=1;entryDx=0;entryDy=0;exitX=0.869;exitY=-0.017;exitDx=0;exitDy=0;exitPerimeter=0;" edge="1" parent="1" source="8" target="60">
                    <mxGeometry width="50" height="50" relative="1" as="geometry">
                        <mxPoint x="-50" y="480" as="sourcePoint"/>
                        <mxPoint x="-50" y="350" as="targetPoint"/>
                    </mxGeometry>
                </mxCell>
                <mxCell id="65" value="" style="rounded=0;whiteSpace=wrap;html=1;shadow=0;sketch=0;fillStyle=auto;fontSize=16;fillColor=none;strokeColor=#6c8ebf;strokeWidth=8;" vertex="1" parent="1">
                    <mxGeometry x="-383.5" y="230" width="387" height="160" as="geometry"/>
                </mxCell>
                <mxCell id="66" value="" style="endArrow=none;dashed=1;html=1;rounded=0;fontSize=23;fontColor=#6c8ebf;startSize=14;endSize=14;sourcePerimeterSpacing=8;targetPerimeterSpacing=8;curved=1;exitX=1;exitY=0.5;exitDx=0;exitDy=0;entryX=0;entryY=0.5;entryDx=0;entryDy=0;strokeWidth=5;strokeColor=#6c8ebf;" edge="1" parent="1" source="65" target="47">
                    <mxGeometry width="50" height="50" relative="1" as="geometry">
                        <mxPoint x="190" y="390" as="sourcePoint"/>
                        <mxPoint x="240" y="340" as="targetPoint"/>
                    </mxGeometry>
                </mxCell>
                <mxCell id="110" value="&lt;font style=&quot;font-size: 23px;&quot; color=&quot;#6c8ebf&quot;&gt;bind&lt;/font&gt;" style="edgeLabel;html=1;align=center;verticalAlign=middle;resizable=0;points=[];fontSize=19;fontColor=#22874c;" vertex="1" connectable="0" parent="66">
                    <mxGeometry x="-0.098" y="5" relative="1" as="geometry">
                        <mxPoint y="1" as="offset"/>
                    </mxGeometry>
                </mxCell>
                <mxCell id="81" value="" style="endArrow=classic;html=1;rounded=0;strokeColor=#000000;strokeWidth=2;fontSize=22;fontColor=#6c8ebf;sourcePerimeterSpacing=8;targetPerimeterSpacing=8;curved=1;exitX=0;exitY=0.5;exitDx=0;exitDy=0;entryX=1;entryY=0.5;entryDx=0;entryDy=0;" edge="1" parent="1" source="2" target="3">
                    <mxGeometry width="50" height="50" relative="1" as="geometry">
                        <mxPoint x="-580" y="450" as="sourcePoint"/>
                        <mxPoint x="-530" y="400" as="targetPoint"/>
                    </mxGeometry>
                </mxCell>
                <mxCell id="112" value="&lt;font color=&quot;#000000&quot; style=&quot;font-size: 20px;&quot;&gt;create&lt;/font&gt;" style="edgeLabel;html=1;align=center;verticalAlign=middle;resizable=0;points=[];fontSize=23;fontColor=#6c8ebf;" vertex="1" connectable="0" parent="81">
                    <mxGeometry x="0.05" y="1" relative="1" as="geometry">
                        <mxPoint x="-2" y="-1" as="offset"/>
                    </mxGeometry>
                </mxCell>
                <mxCell id="82" value="&lt;p style=&quot;margin:0px;margin-top:4px;text-align:center;&quot;&gt;&lt;font style=&quot;font-size: 22px;&quot;&gt;&lt;b&gt;CLIENT&lt;/b&gt;&lt;/font&gt;&lt;/p&gt;" style="verticalAlign=top;align=left;overflow=fill;fontSize=12;fontFamily=Helvetica;html=1;strokeWidth=5;rounded=1;shadow=0;glass=0;" vertex="1" parent="1">
                    <mxGeometry x="480" y="40" width="440" height="520" as="geometry"/>
                </mxCell>
                <mxCell id="84" style="edgeStyle=none;html=1;entryX=0.5;entryY=0;entryDx=0;entryDy=0;exitX=0.5;exitY=1;exitDx=0;exitDy=0;strokeWidth=3;endArrow=none;endFill=0;" edge="1" parent="1" source="102" target="88">
                    <mxGeometry relative="1" as="geometry">
                        <mxPoint x="650" y="180" as="sourcePoint"/>
                    </mxGeometry>
                </mxCell>
                <mxCell id="85" style="edgeStyle=none;html=1;entryX=0.5;entryY=0;entryDx=0;entryDy=0;exitX=0.5;exitY=1;exitDx=0;exitDy=0;strokeWidth=3;endArrow=none;endFill=0;" edge="1" parent="1" source="102" target="90">
                    <mxGeometry relative="1" as="geometry">
                        <mxPoint x="650" y="290" as="targetPoint"/>
                    </mxGeometry>
                </mxCell>
                <mxCell id="86" style="edgeStyle=none;html=1;entryX=0.5;entryY=0;entryDx=0;entryDy=0;exitX=0.5;exitY=1;exitDx=0;exitDy=0;strokeWidth=3;endArrow=none;endFill=0;" edge="1" parent="1" source="102" target="91">
                    <mxGeometry relative="1" as="geometry">
                        <mxPoint x="643" y="170" as="sourcePoint"/>
                        <mxPoint x="730" y="290" as="targetPoint"/>
                        <Array as="points"/>
                    </mxGeometry>
                </mxCell>
                <mxCell id="88" value="&lt;font style=&quot;font-size: 18px;&quot;&gt;&lt;i style=&quot;&quot;&gt;Servizio 1&lt;/i&gt;&lt;/font&gt;" style="ellipse;whiteSpace=wrap;html=1;" vertex="1" parent="1">
                    <mxGeometry x="520" y="270" width="85" height="80" as="geometry"/>
                </mxCell>
                <mxCell id="89" value="&lt;font style=&quot;font-size: 16px;&quot;&gt;&lt;b&gt;Elaborazione dati&lt;/b&gt;&lt;/font&gt;" style="shape=trapezoid;perimeter=trapezoidPerimeter;whiteSpace=wrap;html=1;fixedSize=1;shadow=0;rounded=0;fillStyle=hatch;gradientColor=none;fillColor=#000000;" vertex="1" parent="1">
                    <mxGeometry x="530" y="480" width="350" height="60" as="geometry"/>
                </mxCell>
                <mxCell id="90" value="&lt;i style=&quot;border-color: var(--border-color); color: rgb(0, 0, 0); font-family: Helvetica; font-size: 18px; font-variant-ligatures: normal; font-variant-caps: normal; font-weight: 400; letter-spacing: normal; orphans: 2; text-align: center; text-indent: 0px; text-transform: none; widows: 2; word-spacing: 0px; -webkit-text-stroke-width: 0px; background-color: rgb(251, 251, 251); text-decoration-thickness: initial; text-decoration-style: initial; text-decoration-color: initial;&quot;&gt;Servizio 2&lt;/i&gt;" style="ellipse;whiteSpace=wrap;html=1;" vertex="1" parent="1">
                    <mxGeometry x="620" y="270" width="85" height="80" as="geometry"/>
                </mxCell>
                <mxCell id="91" value="&lt;i style=&quot;border-color: var(--border-color); color: rgb(0, 0, 0); font-family: Helvetica; font-size: 18px; font-variant-ligatures: normal; font-variant-caps: normal; font-weight: 400; letter-spacing: normal; orphans: 2; text-align: center; text-indent: 0px; text-transform: none; widows: 2; word-spacing: 0px; -webkit-text-stroke-width: 0px; background-color: rgb(251, 251, 251); text-decoration-thickness: initial; text-decoration-style: initial; text-decoration-color: initial;&quot;&gt;Servizio K&lt;/i&gt;" style="ellipse;whiteSpace=wrap;html=1;" vertex="1" parent="1">
                    <mxGeometry x="790" y="275" width="85" height="80" as="geometry"/>
                </mxCell>
                <mxCell id="92" value="" style="endArrow=none;html=1;strokeWidth=2;rounded=0;fontSize=16;startSize=14;endSize=14;sourcePerimeterSpacing=8;targetPerimeterSpacing=8;curved=1;exitX=0.094;exitY=0;exitDx=0;exitDy=0;exitPerimeter=0;entryX=0.5;entryY=1;entryDx=0;entryDy=0;" edge="1" parent="1" source="89" target="88">
                    <mxGeometry width="50" height="50" relative="1" as="geometry">
                        <mxPoint x="730" y="350" as="sourcePoint"/>
                        <mxPoint x="780" y="300" as="targetPoint"/>
                    </mxGeometry>
                </mxCell>
                <mxCell id="93" value="" style="endArrow=none;html=1;strokeWidth=2;rounded=0;fontSize=16;startSize=14;endSize=14;sourcePerimeterSpacing=8;targetPerimeterSpacing=8;curved=1;entryX=0.5;entryY=1;entryDx=0;entryDy=0;" edge="1" parent="1" target="90">
                    <mxGeometry width="50" height="50" relative="1" as="geometry">
                        <mxPoint x="663" y="480" as="sourcePoint"/>
                        <mxPoint x="830" y="380" as="targetPoint"/>
                    </mxGeometry>
                </mxCell>
                <mxCell id="94" value="" style="endArrow=none;html=1;strokeWidth=2;rounded=0;fontSize=16;startSize=14;endSize=14;sourcePerimeterSpacing=8;targetPerimeterSpacing=8;curved=1;entryX=0.5;entryY=1;entryDx=0;entryDy=0;exitX=0.869;exitY=-0.017;exitDx=0;exitDy=0;exitPerimeter=0;" edge="1" parent="1" source="89" target="91">
                    <mxGeometry width="50" height="50" relative="1" as="geometry">
                        <mxPoint x="840" y="480" as="sourcePoint"/>
                        <mxPoint x="840" y="350" as="targetPoint"/>
                    </mxGeometry>
                </mxCell>
                <mxCell id="102" value="&lt;p style=&quot;line-height: 120%;&quot;&gt;&lt;font color=&quot;#000000&quot; style=&quot;font-size: 19px;&quot;&gt;Controller GUI&lt;/font&gt;&lt;/p&gt;" style="rounded=0;whiteSpace=wrap;html=1;shadow=0;glass=0;sketch=0;fillStyle=auto;strokeColor=#000000;strokeWidth=2;fontSize=22;fontColor=#6c8ebf;fillColor=none;gradientColor=none;align=center;dashed=1;dashPattern=1 1;" vertex="1" parent="1">
                    <mxGeometry x="520" y="140" width="360" height="60" as="geometry"/>
                </mxCell>
                <mxCell id="87" value="&lt;span style=&quot;font-size: 18px;&quot;&gt;&lt;b&gt;GUI&lt;br&gt;(Main Thread)&lt;br&gt;&lt;/b&gt;&lt;/span&gt;" style="whiteSpace=wrap;html=1;strokeWidth=2;" vertex="1" parent="1">
                    <mxGeometry x="530" y="90" width="340" height="60" as="geometry"/>
                </mxCell>
                <mxCell id="6" value="&lt;font style=&quot;font-size: 18px;&quot;&gt;&lt;i style=&quot;&quot;&gt;Remote object 1&lt;/i&gt;&lt;/font&gt;" style="ellipse;whiteSpace=wrap;html=1;" parent="1" vertex="1">
                    <mxGeometry x="-370" y="270" width="85" height="80" as="geometry"/>
                </mxCell>
                <mxCell id="58" value="&lt;i style=&quot;border-color: var(--border-color); color: rgb(0, 0, 0); font-family: Helvetica; font-size: 18px; font-variant-ligatures: normal; font-variant-caps: normal; font-weight: 400; letter-spacing: normal; orphans: 2; text-align: center; text-indent: 0px; text-transform: none; widows: 2; word-spacing: 0px; -webkit-text-stroke-width: 0px; background-color: rgb(251, 251, 251); text-decoration-thickness: initial; text-decoration-style: initial; text-decoration-color: initial;&quot;&gt;Remote object 2&lt;/i&gt;" style="ellipse;whiteSpace=wrap;html=1;" vertex="1" parent="1">
                    <mxGeometry x="-270" y="270" width="85" height="80" as="geometry"/>
                </mxCell>
                <mxCell id="60" value="&lt;i style=&quot;border-color: var(--border-color); color: rgb(0, 0, 0); font-family: Helvetica; font-size: 18px; font-variant-ligatures: normal; font-variant-caps: normal; font-weight: 400; letter-spacing: normal; orphans: 2; text-align: center; text-indent: 0px; text-transform: none; widows: 2; word-spacing: 0px; -webkit-text-stroke-width: 0px; background-color: rgb(251, 251, 251); text-decoration-thickness: initial; text-decoration-style: initial; text-decoration-color: initial;&quot;&gt;Remote object N&lt;/i&gt;" style="ellipse;whiteSpace=wrap;html=1;" vertex="1" parent="1">
                    <mxGeometry x="-100" y="275" width="85" height="80" as="geometry"/>
                </mxCell>
                <mxCell id="103" value="&lt;font color=&quot;#22874c&quot; style=&quot;font-size: 23px;&quot;&gt;&lt;b style=&quot;&quot;&gt;UTENTE&lt;/b&gt;&lt;/font&gt;" style="rounded=1;whiteSpace=wrap;html=1;strokeWidth=8;fillColor=none;strokeColor=#21874d;" vertex="1" parent="1">
                    <mxGeometry x="280" y="-150" width="200" height="80" as="geometry"/>
                </mxCell>
                <mxCell id="104" value="" style="endArrow=none;dashed=1;html=1;rounded=0;fontSize=23;fontColor=#6c8ebf;startSize=14;endSize=14;sourcePerimeterSpacing=8;targetPerimeterSpacing=8;exitX=0;exitY=0.5;exitDx=0;exitDy=0;strokeWidth=3;strokeColor=#6c8ebf;entryX=1;entryY=0.5;entryDx=0;entryDy=0;" edge="1" parent="1" source="88" target="47">
                    <mxGeometry width="50" height="50" relative="1" as="geometry">
                        <mxPoint x="510" y="570" as="sourcePoint"/>
                        <mxPoint x="280" y="610" as="targetPoint"/>
                        <Array as="points"/>
                    </mxGeometry>
                </mxCell>
                <mxCell id="105" value="" style="endArrow=none;dashed=1;html=1;rounded=0;fontSize=23;fontColor=#6c8ebf;startSize=14;endSize=14;sourcePerimeterSpacing=8;targetPerimeterSpacing=8;exitX=0;exitY=1;exitDx=0;exitDy=0;strokeWidth=3;strokeColor=#6c8ebf;entryX=1;entryY=0.5;entryDx=0;entryDy=0;" edge="1" parent="1" source="90" target="47">
                    <mxGeometry width="50" height="50" relative="1" as="geometry">
                        <mxPoint x="530" y="320" as="sourcePoint"/>
                        <mxPoint x="300" y="330" as="targetPoint"/>
                        <Array as="points">
                            <mxPoint x="600" y="360"/>
                            <mxPoint x="440" y="360"/>
                            <mxPoint x="400" y="310"/>
                        </Array>
                    </mxGeometry>
                </mxCell>
                <mxCell id="106" value="" style="endArrow=none;dashed=1;html=1;rounded=0;fontSize=23;fontColor=#6c8ebf;startSize=14;endSize=14;sourcePerimeterSpacing=8;targetPerimeterSpacing=8;exitX=0;exitY=1;exitDx=0;exitDy=0;strokeWidth=3;strokeColor=#6c8ebf;entryX=1;entryY=0.5;entryDx=0;entryDy=0;" edge="1" parent="1" source="91" target="47">
                    <mxGeometry width="50" height="50" relative="1" as="geometry">
                        <mxPoint x="802.6263074867757" y="348.4511357268807" as="sourcePoint"/>
                        <mxPoint x="340" y="350" as="targetPoint"/>
                        <Array as="points">
                            <mxPoint x="770" y="360"/>
                            <mxPoint x="440" y="360"/>
                            <mxPoint x="400" y="310"/>
                        </Array>
                    </mxGeometry>
                </mxCell>
                <mxCell id="111" value="&lt;font style=&quot;font-size: 23px;&quot;&gt;lookup&lt;/font&gt;" style="edgeLabel;html=1;align=center;verticalAlign=middle;resizable=0;points=[];fontSize=19;fontColor=#6c8ebf;" vertex="1" connectable="0" parent="106">
                    <mxGeometry x="0.6659" y="-1" relative="1" as="geometry">
                        <mxPoint as="offset"/>
                    </mxGeometry>
                </mxCell>
                <mxCell id="107" value="" style="endArrow=none;dashed=1;html=1;dashPattern=1 1;strokeWidth=6;strokeColor=#22874c;fontSize=19;fontColor=#22874c;endSize=6;sourcePerimeterSpacing=8;targetPerimeterSpacing=8;exitX=0.5;exitY=0;exitDx=0;exitDy=0;entryX=0;entryY=0.5;entryDx=0;entryDy=0;curved=1;" edge="1" parent="1" source="2" target="103">
                    <mxGeometry width="50" height="50" relative="1" as="geometry">
                        <mxPoint x="180" y="-20" as="sourcePoint"/>
                        <mxPoint x="230" y="-70" as="targetPoint"/>
                        <Array as="points">
                            <mxPoint x="90" y="-80"/>
                        </Array>
                    </mxGeometry>
                </mxCell>
                <mxCell id="109" value="" style="endArrow=none;dashed=1;html=1;dashPattern=1 1;strokeWidth=6;strokeColor=#22874c;fontSize=19;fontColor=#22874c;endSize=6;sourcePerimeterSpacing=8;targetPerimeterSpacing=8;exitX=0.25;exitY=0;exitDx=0;exitDy=0;entryX=1;entryY=0.5;entryDx=0;entryDy=0;curved=1;" edge="1" parent="1" source="87" target="103">
                    <mxGeometry width="50" height="50" relative="1" as="geometry">
                        <mxPoint x="110" y="100" as="sourcePoint"/>
                        <mxPoint x="290" y="-60" as="targetPoint"/>
                        <Array as="points">
                            <mxPoint x="615" y="-80"/>
                        </Array>
                    </mxGeometry>
                </mxCell>
                <mxCell id="115" value="" style="edgeStyle=none;orthogonalLoop=1;jettySize=auto;html=1;strokeColor=#000000;strokeWidth=3;fontSize=20;fontColor=#000000;endArrow=none;endFill=0;endSize=6;sourcePerimeterSpacing=8;targetPerimeterSpacing=8;curved=1;exitX=0.5;exitY=1;exitDx=0;exitDy=0;entryX=1;entryY=0;entryDx=0;entryDy=0;" edge="1" parent="1" source="2" target="65">
                    <mxGeometry width="140" relative="1" as="geometry">
                        <mxPoint x="240" y="420" as="sourcePoint"/>
                        <mxPoint x="380" y="420" as="targetPoint"/>
                        <Array as="points"/>
                    </mxGeometry>
                </mxCell>
                <mxCell id="116" value="" style="edgeStyle=none;orthogonalLoop=1;jettySize=auto;html=1;strokeColor=#000000;strokeWidth=3;fontSize=20;fontColor=#000000;endArrow=none;endFill=0;endSize=6;sourcePerimeterSpacing=8;targetPerimeterSpacing=8;curved=1;exitX=0.5;exitY=1;exitDx=0;exitDy=0;entryX=1;entryY=0.5;entryDx=0;entryDy=0;" edge="1" parent="1" source="2" target="8">
                    <mxGeometry width="140" relative="1" as="geometry">
                        <mxPoint x="110" y="160" as="sourcePoint"/>
                        <mxPoint x="13.5" y="240" as="targetPoint"/>
                        <Array as="points">
                            <mxPoint x="120" y="490"/>
                        </Array>
                    </mxGeometry>
                </mxCell>
            </root>
        </mxGraphModel>
    </diagram>
</mxfile>